<svg width="1496" height="1704" viewBox="0 0 1496 1704" fill="none" xmlns="http://www.w3.org/2000/svg">
<g filter="url(#filter0_f_3_2)">
<circle cx="463" cy="1072" r="162" transform="rotate(180 463 1072)" fill="#A2C6D2" fill-opacity="0.5"/>
</g>
<g filter="url(#filter1_f_3_2)">
<ellipse cx="601.5" cy="1218" rx="277.5" ry="162" transform="rotate(180 601.5 1218)" fill="#86A8E6" fill-opacity="0.4"/>
</g>
<g filter="url(#filter2_d_3_2)">
<rect x="1396" y="1234" width="1009" height="1009" rx="200" transform="rotate(180 1396 1234)" fill="url(#paint0_linear_3_2)"/>
<rect x="1388" y="1226" width="993" height="993" rx="192" transform="rotate(180 1388 1226)" stroke="url(#paint1_linear_3_2)" stroke-width="16"/>
</g>
<rect x="1319" y="1157" width="856" height="856" rx="127" transform="rotate(180 1319 1157)" fill="url(#paint2_linear_3_2)"/>
<g style="mix-blend-mode:overlay">
<path fill-rule="evenodd" clip-rule="evenodd" d="M1098.07 528L1136.91 489.158C1148.77 501.266 1159.74 514.249 1169.72 528H1098.07ZM1093 533.071L1093.07 533H1173.28C1212.18 588.68 1235 656.425 1235 729.5C1235 729.667 1235 729.834 1235 730H1093V533.071ZM1093 526L1133.39 485.611C1120.84 473.166 1107.34 461.682 1093 451.279V526ZM1140.45 485.622L1328.54 297.536L1325 294L1136.92 482.076C1123.34 468.598 1108.65 456.232 1093 445.125L1093 241H1088L1088 441.64C1032.06 403.379 964.392 381 891.5 381L891.237 381L891 381.001L891 241H886L886 381.043C812.589 382.179 744.686 406.013 689 445.837V241H684V449.48C669.258 460.422 655.41 472.501 642.586 485.586L457 300L453.464 303.536L639.111 489.183C627.549 501.322 616.854 514.294 607.124 528H403V533H603.64C565.379 588.943 543 656.608 543 729.5L543 729.749L543 730L403 730V735L543.043 735C544.178 808.411 568.013 876.314 607.837 932L403 932V937L611.48 937C621.436 950.415 632.334 963.089 644.075 974.925L457 1162L460.536 1165.54L647.622 978.45C659.013 989.611 671.168 999.996 684 1009.52L684 1218H689L689 1013.16C744.686 1052.99 812.589 1076.82 886 1077.96V1218H891V1078C891.167 1078 891.333 1078 891.5 1078C964.392 1078 1032.06 1055.62 1088 1017.36L1088 1218H1093L1093 1013.88C1106.71 1004.15 1119.68 993.451 1131.82 981.889L1321.46 1171.54L1325 1168L1135.41 978.414C1148.5 965.59 1160.58 951.742 1171.52 937H1380V932H1175.16C1214.99 876.314 1238.82 808.411 1239.96 735H1380V730H1240L1240 729.703L1240 729.5C1240 656.608 1217.62 588.943 1179.36 533H1380V528H1175.88C1165.19 512.945 1153.34 498.775 1140.45 485.622ZM651.157 974.914C661.49 985.035 672.46 994.508 684 1003.27V942.071L651.157 974.914ZM689 937.071L689.071 937L886 937V1072.96C812.391 1071.8 744.403 1047.49 689 1006.99V937.071ZM694.071 932L886 740.071V932L694.071 932ZM884 735L689 930L689 735L884 735ZM891 728L891 533L1086 533L891 728ZM896.071 730L1088 538.071V730L896.071 730ZM682 937L647.611 971.389C636.916 960.606 626.931 949.118 617.732 937H682ZM613.279 528C622.284 515.588 632.1 503.802 642.648 492.719L677.929 528H613.279ZM646.122 489.122L684 527V455.732C670.566 465.93 657.905 477.095 646.122 489.122ZM684 534.071L682.929 533H609.719C570.819 588.68 548 656.425 548 729.5C548 729.667 548 729.834 548 730H684V534.071ZM879.929 730L689 539.071V730L879.929 730ZM690 533L886 729L886 533H690ZM1081.93 932L891 741.071V932L1081.93 932ZM892 735L1088 931V735L892 735ZM1088 938.071L1086.93 937L891 937V1073C891.167 1073 891.333 1073 891.5 1073C964.575 1073 1032.32 1050.18 1088 1011.28V938.071ZM1128.28 978.352L1093 943.071V1007.72C1105.41 998.716 1117.2 988.901 1128.28 978.352ZM1094 937L1131.88 974.879C1143.91 963.095 1155.07 950.435 1165.27 937H1094ZM1234.96 735H1093V932H1168.99C1209.49 876.597 1233.8 808.609 1234.96 735ZM614.007 932H684L684 735H548.043C549.199 808.609 573.508 876.597 614.007 932ZM689 452.007V528H886V386.043C812.391 387.199 744.403 411.508 689 452.007ZM891 386.001V528L1088 528V447.719C1032.32 408.819 964.575 386 891.5 386L891.323 386L891 386.001Z" fill="white" fill-opacity="0.4"/>
</g>
<circle cx="746" cy="877" r="144" transform="rotate(180 746 877)" fill="url(#paint3_linear_3_2)" fill-opacity="0.7" stroke="url(#paint4_linear_3_2)" stroke-width="2"/>
<circle cx="145" cy="145" r="145" transform="matrix(-1 0 0 1 891 442)" fill="url(#paint5_linear_3_2)" fill-opacity="0.7"/>
<circle cx="145" cy="145" r="145" transform="matrix(1 0 0 -1 891 1022)" fill="url(#paint6_linear_3_2)" fill-opacity="0.7"/>
<circle cx="1036" cy="587" r="144" fill="url(#paint7_linear_3_2)" fill-opacity="0.7" stroke="url(#paint8_linear_3_2)" stroke-width="2"/>
<g filter="url(#filter3_f_3_2)">
<circle cx="540" cy="366" r="162" transform="rotate(180 540 366)" fill="#483CC9" fill-opacity="0.6"/>
</g>
<g filter="url(#filter4_f_3_2)">
<circle cx="891" cy="873" r="10" transform="rotate(180 891 873)" fill="white"/>
</g>
<g filter="url(#filter5_f_3_2)">
<circle cx="891" cy="873" r="27" transform="rotate(180 891 873)" fill="white" fill-opacity="0.3"/>
</g>
<g filter="url(#filter6_f_3_2)">
<circle cx="952" cy="701" r="27" transform="rotate(180 952 701)" fill="white" fill-opacity="0.3"/>
</g>
<g filter="url(#filter7_f_3_2)">
<circle cx="952" cy="701" r="10" transform="rotate(180 952 701)" fill="white"/>
</g>
<g style="mix-blend-mode:overlay">
<circle cx="145" cy="145" r="145" transform="matrix(1 0 0 -1 746 873)" fill="#ACD5EB" fill-opacity="0.3"/>
</g>
<defs>
<filter id="filter0_f_3_2" x="17" y="626" width="892" height="892" filterUnits="userSpaceOnUse" color-interpolation-filters="sRGB">
<feFlood flood-opacity="0" result="BackgroundImageFix"/>
<feBlend mode="normal" in="SourceGraphic" in2="BackgroundImageFix" result="shape"/>
<feGaussianBlur stdDeviation="142" result="effect1_foregroundBlur_3_2"/>
</filter>
<filter id="filter1_f_3_2" x="0" y="732" width="1203" height="972" filterUnits="userSpaceOnUse" color-interpolation-filters="sRGB">
<feFlood flood-opacity="0" result="BackgroundImageFix"/>
<feBlend mode="normal" in="SourceGraphic" in2="BackgroundImageFix" result="shape"/>
<feGaussianBlur stdDeviation="162" result="effect1_foregroundBlur_3_2"/>
</filter>
<filter id="filter2_d_3_2" x="287" y="175" width="1209" height="1209" filterUnits="userSpaceOnUse" color-interpolation-filters="sRGB">
<feFlood flood-opacity="0" result="BackgroundImageFix"/>
<feColorMatrix in="SourceAlpha" type="matrix" values="0 0 0 0 0 0 0 0 0 0 0 0 0 0 0 0 0 0 127 0" result="hardAlpha"/>
<feOffset dy="50"/>
<feGaussianBlur stdDeviation="50"/>
<feComposite in2="hardAlpha" operator="out"/>
<feColorMatrix type="matrix" values="0 0 0 0 0 0 0 0 0 0 0 0 0 0 0 0 0 0 0.55 0"/>
<feBlend mode="normal" in2="BackgroundImageFix" result="effect1_dropShadow_3_2"/>
<feBlend mode="normal" in="SourceGraphic" in2="effect1_dropShadow_3_2" result="shape"/>
</filter>
<filter id="filter3_f_3_2" x="174" y="0.000244141" width="732" height="732" filterUnits="userSpaceOnUse" color-interpolation-filters="sRGB">
<feFlood flood-opacity="0" result="BackgroundImageFix"/>
<feBlend mode="normal" in="SourceGraphic" in2="BackgroundImageFix" result="shape"/>
<feGaussianBlur stdDeviation="102" result="effect1_foregroundBlur_3_2"/>
</filter>
<filter id="filter4_f_3_2" x="872" y="854" width="38" height="38" filterUnits="userSpaceOnUse" color-interpolation-filters="sRGB">
<feFlood flood-opacity="0" result="BackgroundImageFix"/>
<feBlend mode="normal" in="SourceGraphic" in2="BackgroundImageFix" result="shape"/>
<feGaussianBlur stdDeviation="4.5" result="effect1_foregroundBlur_3_2"/>
</filter>
<filter id="filter5_f_3_2" x="840" y="822" width="102" height="102" filterUnits="userSpaceOnUse" color-interpolation-filters="sRGB">
<feFlood flood-opacity="0" result="BackgroundImageFix"/>
<feBlend mode="normal" in="SourceGraphic" in2="BackgroundImageFix" result="shape"/>
<feGaussianBlur stdDeviation="12" result="effect1_foregroundBlur_3_2"/>
</filter>
<filter id="filter6_f_3_2" x="901" y="650" width="102" height="102" filterUnits="userSpaceOnUse" color-interpolation-filters="sRGB">
<feFlood flood-opacity="0" result="BackgroundImageFix"/>
<feBlend mode="normal" in="SourceGraphic" in2="BackgroundImageFix" result="shape"/>
<feGaussianBlur stdDeviation="12" result="effect1_foregroundBlur_3_2"/>
</filter>
<filter id="filter7_f_3_2" x="933" y="682" width="38" height="38" filterUnits="userSpaceOnUse" color-interpolation-filters="sRGB">
<feFlood flood-opacity="0" result="BackgroundImageFix"/>
<feBlend mode="normal" in="SourceGraphic" in2="BackgroundImageFix" result="shape"/>
<feGaussianBlur stdDeviation="4.5" result="effect1_foregroundBlur_3_2"/>
</filter>
<linearGradient id="paint0_linear_3_2" x1="2273" y1="1234" x2="1689" y2="1739" gradientUnits="userSpaceOnUse">
<stop stop-color="#79AEE7"/>
<stop offset="0.331593" stop-color="#4960A7"/>
<stop offset="1" stop-color="#101012"/>
</linearGradient>
<linearGradient id="paint1_linear_3_2" x1="2284" y1="1280.5" x2="1575.5" y2="1977" gradientUnits="userSpaceOnUse">
<stop stop-color="#EBF8FC"/>
<stop offset="0.295134" stop-color="#7FB8EF"/>
<stop offset="0.57639" stop-color="#5142F1"/>
<stop offset="1" stop-color="#1D1D29"/>
</linearGradient>
<linearGradient id="paint2_linear_3_2" x1="2036" y1="1245" x2="1680" y2="1755" gradientUnits="userSpaceOnUse">
<stop stop-color="#3B4F75"/>
<stop offset="0.529514" stop-color="#1B253E"/>
<stop offset="1" stop-color="#101012"/>
</linearGradient>
<linearGradient id="paint3_linear_3_2" x1="654.5" y1="965.5" x2="826" y2="799.5" gradientUnits="userSpaceOnUse">
<stop stop-color="#AAD3E9"/>
<stop offset="1" stop-color="#AAD3E9" stop-opacity="0"/>
</linearGradient>
<linearGradient id="paint4_linear_3_2" x1="625" y1="877" x2="845" y2="877" gradientUnits="userSpaceOnUse">
<stop stop-color="white" stop-opacity="0.5"/>
<stop offset="1" stop-opacity="0"/>
</linearGradient>
<linearGradient id="paint5_linear_3_2" x1="53.5" y1="233.5" x2="225" y2="67.5" gradientUnits="userSpaceOnUse">
<stop stop-color="#AAD3E9"/>
<stop offset="1" stop-color="#AAD3E9" stop-opacity="0"/>
</linearGradient>
<linearGradient id="paint6_linear_3_2" x1="53.5" y1="233.5" x2="225" y2="67.5" gradientUnits="userSpaceOnUse">
<stop stop-color="#AAD3E9"/>
<stop offset="1" stop-color="#AAD3E9" stop-opacity="0"/>
</linearGradient>
<linearGradient id="paint7_linear_3_2" x1="944.5" y1="675.5" x2="1116" y2="509.5" gradientUnits="userSpaceOnUse">
<stop stop-color="#AAD3E9"/>
<stop offset="1" stop-color="#AAD3E9" stop-opacity="0"/>
</linearGradient>
<linearGradient id="paint8_linear_3_2" x1="946.5" y1="690.5" x2="1135" y2="587" gradientUnits="userSpaceOnUse">
<stop stop-color="white" stop-opacity="0.5"/>
<stop offset="1" stop-opacity="0"/>
</linearGradient>
</defs>
</svg>

