<svg width="1586" height="755" viewBox="0 0 1586 755" fill="none" xmlns="http://www.w3.org/2000/svg">
<path d="M1 356L677.5 690C860.5 780 1225.8 844.3 1223 381.5C1223 217.1 1168 20 1140.5 -58M1 306L677.5 640C860.5 730 1262 784.5 1262 377C1262 212.6 1222.5 19 1195 -59M10.5 242.5L686 569.5C869 659.5 1278 788 1299 317C1306.32 152.763 1276.5 20 1249 -58M18 174.5L620 487C803 577 1320.44 698 1337 326.5C1344.32 162.263 1326.5 20 1299 -58M24.5 114L626.5 426.5C809.5 516.5 1350.5 670.5 1376 267C1386.37 102.927 1368 18 1350.5 -55M39 56L648 377C831 467 1366.76 567.5 1407 269C1428.5 109.5 1413 20 1400 -55M59.5 4.5L668.5 325.5C851.5 415.5 1381 542.5 1445 211.5C1467.52 95.0431 1459.5 20 1449 -56M106.5 -34.5L706 279C889.01 359.781 1410.07 478.697 1474.07 181.601C1496.59 77.0721 1497 7 1491.5 -57.5M158 -51L756.028 245.619C939.047 318.387 1447.99 415.124 1512 147.5C1534.52 53.3407 1541.57 -1 1541.57 -57.5M240 -59L810.028 222.122C993.047 289.249 1424.31 355.004 1542.5 129C1571 74.5 1589 2.5976 1583.5 -51" stroke="url(#paint0_linear_3_471)" stroke-width="2"/>
<defs>
<linearGradient id="paint0_linear_3_471" x1="591" y1="-30" x2="1154.5" y2="460.5" gradientUnits="userSpaceOnUse">
<stop stop-color="#6B9DF0"/>
<stop offset="0.373261" stop-color="#6F92CC"/>
<stop offset="1" stop-color="#303B5B"/>
</linearGradient>
</defs>
</svg>

